<svg xmlns="http://www.w3.org/2000/svg" xml:space="preserve" width="2048" height="2048" style="shape-rendering:geometricPrecision;text-rendering:geometricPrecision;image-rendering:optimizeQuality;fill-rule:evenodd;clip-rule:evenodd"><defs><clipPath id="id0"><path d="M1024-.001c565.541 0 1024 458.46 1024 1024s-458.461 1024-1024 1024c-565.541 0-1024-458.461-1024-1024 0-565.541 458.461-1024 1024-1024z"/></clipPath><style>.fil1{fill:#5d4037}.fil7{fill:#ca2b03}.fil8{fill:#dd2c00}.fil5{fill:#fffffe;fill-rule:nonzero}</style></defs><g id="Layer_x0020_1"><path d="M1024-.001c565.541 0 1024 458.46 1024 1024s-458.461 1024-1024 1024c-565.541 0-1024-458.461-1024-1024 0-565.541 458.461-1024 1024-1024z" style="fill:#8d6e63"/><g style="clip-path:url(#id0)"><g id="_517155064"><path id="_5279059761" class="fil1" d="M2696.37 2695.91zM1560.49 1560.03z"/><path id="_527906048" class="fil1" d="M1537.63 533.892 2673.52 1669.77l3.68 4.64 3.52 4.74 3.36 4.83 3.2 4.93 3.03 5.02 2.87 5.11 2.71 5.19 2.55 5.27 2.38 5.36 2.23 5.43 2.06 5.5 1.9 5.58 1.75 5.64 1.58 5.71 1.43 5.77 1.27 5.83 1.1 5.89.96 5.93.79 5.99.64 6.04.48 6.08.32 6.12.17 6.16.01 6.19-.14 6.23-.3 6.26-.45 6.28-.61 6.31-.76 6.33L1579.37 698.245l.76-6.329.61-6.307.45-6.284.3-6.257.14-6.228-.01-6.195-.17-6.159-.33-6.122-.48-6.079-.63-6.035-.8-5.988-.95-5.939-1.11-5.884-1.26-5.83-1.43-5.77-1.58-5.708-1.75-5.644-1.9-5.576-2.07-5.503-2.22-5.432-2.39-5.355-2.54-5.275-2.71-5.192-2.87-5.109-3.03-5.018-3.2-4.929-3.36-4.833-3.52-4.736z"/><path id="_527908112" class="fil1" d="M1579.37 698.245 2715.25 1834.13l-.51 3.7-.57 3.7-.61 3.71-.68 3.72-.72 3.72-.77 3.72-.83 3.73-.88 3.73-.93 3.73-.98 3.73-1.04 3.73-1.08 3.73-1.14 3.72-1.19 3.73-1.24 3.73-1.29 3.72-1.34 3.72-1.4 3.71-1.44 3.71-1.5 3.7-1.54 3.7-1.6 3.69-1.65 3.68-1.7 3.68-1.74 3.67-1.8 3.66-1.85 3.64-1.9 3.64-1.95 3.63-2 3.61-2.05 3.61-2.1 3.59L1537.35 816.435l2.1-3.59 2.05-3.603 2-3.615 1.95-3.627 1.9-3.638 1.85-3.648 1.8-3.659 1.74-3.668 1.7-3.675 1.65-3.684 1.6-3.691 1.54-3.697 1.5-3.704 1.44-3.709 1.4-3.714 1.34-3.718 1.29-3.722 1.24-3.724 1.19-3.728 1.14-3.728 1.08-3.729 1.04-3.73.98-3.73.93-3.73.88-3.727.83-3.726.77-3.722.72-3.721.67-3.716.62-3.711.57-3.706z"/><path id="_527907968" class="fil1" d="M735.964 551.168 1871.85 1687.05l-96.6-86.68L639.367 464.49z"/><path id="_527907560" class="fil1" d="M1537.35 816.435 2673.23 1952.32l2.39 6.02 2.33 6.07 2.26 6.09 2.19 6.13 2.12 6.16 2.05 6.19 1.98 6.23 1.91 6.26 1.83 6.29 1.76 6.32 1.69 6.35 1.62 6.38 1.54 6.41 1.46 6.43 1.39 6.47 1.32 6.49 1.24 6.52 1.16 6.55 1.09 6.57 1.01 6.6.93 6.63.85 6.65.77 6.67.7 6.7.61 6.72.54 6.74.45 6.77.37 6.79.29 6.81.21 6.83.12 6.85.04 6.87-.11 11.56-.36 11.49-.58 11.44-.82 11.37-1.04 11.31-1.27 11.24-1.49 11.18-1.72 11.1-1.93 11.03-2.15 10.95-2.36 10.87-2.58 10.8-2.78 10.71-2.99 10.62-3.2 10.54-3.4 10.45-3.6 10.35-3.8 10.26-3.99 10.17-4.19 10.06-4.38 9.97-4.56 9.86-4.76 9.75-4.94 9.65-5.12 9.54-5.3 9.42-5.48 9.31-5.65 9.19-5.82 9.07-6 8.95-6.17 8.82-6.33 8.7L1468.7 1353.73l6.33-8.7 6.17-8.82 5.99-8.95 5.83-9.07 5.65-9.2 5.48-9.3 5.3-9.43 5.12-9.53 4.94-9.65 4.75-9.76 4.57-9.85 4.38-9.97 4.19-10.07 3.99-10.16 3.8-10.26 3.6-10.36 3.4-10.44 3.2-10.54 2.99-10.63 2.78-10.71 2.58-10.79 2.36-10.87 2.15-10.95 1.93-11.03 1.71-11.1 1.5-11.18 1.27-11.24 1.04-11.31.82-11.37.58-11.44.36-11.5.11-11.55-.04-6.87-.12-6.85-.21-6.83-.29-6.814-.37-6.789-.46-6.766-.53-6.743-.61-6.722-.7-6.698-.77-6.673-.85-6.65-.93-6.625-1.01-6.6-1.09-6.572-1.16-6.547-1.24-6.521-1.32-6.494-1.39-6.465-1.46-6.437-1.55-6.409-1.61-6.379-1.69-6.35-1.76-6.32-1.83-6.289-1.91-6.258-1.98-6.226-2.05-6.194-2.12-6.162-2.19-6.129-2.26-6.095-2.33-6.061z"/><path id="_527907632" class="fil1" d="m1561.31 1446.33 1135.88 1135.89.01.01-1135.88-1135.88z"/><path id="_527907776" class="fil1" d="m1561.34 1446.37 1135.88 1135.88.02.01-1135.89-1135.88z"/><path id="_527908040" class="fil1" d="m1561.37 1446.4 1135.88 1135.88.02.02-1135.88-1135.89z"/><path id="_527907872" class="fil1" d="m1561.77 1446.8 1135.88 1135.89.19.18.18.19.18.19.18.19.18.19.18.19-1135.88-1135.88-.18-.19-.18-.19-.18-.19-.18-.19-.19-.19z"/><path id="_527908712" class="fil1" d="m1562.86 1447.94 1135.88 1135.88.84.9.81.91.8.92.78.93.77.95.75.95.73.96.72.97.7.99.68.99.67 1 .65 1.01.63 1.02.61 1.03.6 1.03.59 1.05-1135.89-1135.88-.58-1.05-.6-1.03-.61-1.03-.64-1.02-.65-1.01-.66-1-.68-1-.7-.98-.72-.97-.73-.96-.75-.96-.77-.94-.78-.93-.8-.92-.82-.91z"/><path id="_527908472" class="fil1" d="m1574.18 1463.55 1135.89 1135.88.61 1.15.6 1.16.57 1.17.55 1.17.54 1.19.51 1.19.49 1.19.47 1.21.46 1.21.43 1.21.41 1.23.39 1.22.37 1.24.35 1.24.33 1.24.32 1.24.29 1.26.27 1.25.26 1.26.23 1.26.22 1.27.19 1.27.18 1.27.16 1.27.14 1.28.12 1.28.1 1.28.08 1.28.06 1.28.05 1.28.03 1.28.01 1.29v.35l-.01.35v.35l-.01.35v.36l-.01.35-.01.35-.01.35-1135.88-1135.88.01-.35.01-.36.01-.35v-.35l.01-.35v-.71l.01-.35-.01-1.28-.03-1.28-.05-1.29-.06-1.28-.08-1.28-.11-1.28-.12-1.27-.14-1.28-.15-1.27-.18-1.27-.2-1.27-.21-1.27-.24-1.26-.25-1.26-.27-1.26-.3-1.25-.31-1.24-.33-1.25-.35-1.24-.37-1.23-.39-1.23-.42-1.22-.43-1.21-.45-1.21-.47-1.21-.49-1.2-.51-1.19-.54-1.18-.55-1.18-.58-1.16-.59-1.16z"/><path id="_527908808" class="fil1" d="m1583.93 1505.98 1135.88 1135.88-.1 1.81-.13 1.81-.18 1.8-.21 1.8-.25 1.8-.29 1.79-.33 1.79-.38 1.78-.4 1.77-.45 1.77-.49 1.75-.53 1.75-.57 1.74-.6 1.72-.65 1.72-.68 1.7-.73 1.69-.76 1.67-.8 1.66-.85 1.64-.88 1.63-.92 1.61-.96 1.59-1 1.57-1.04 1.55-1.08 1.53-1.12 1.51-1.16 1.49-1.2 1.47-1.24 1.44-1.27 1.41-1.32 1.4-1135.88-1135.89 1.32-1.39 1.27-1.42 1.24-1.44 1.2-1.46 1.16-1.49 1.12-1.51 1.08-1.53 1.04-1.55 1-1.58.96-1.59.92-1.61.88-1.62.84-1.64.81-1.66.76-1.68.73-1.68.68-1.71.65-1.71.6-1.73.57-1.73.53-1.75.49-1.76.44-1.76.41-1.77.37-1.78.33-1.79.3-1.79.25-1.8.21-1.8.18-1.81.13-1.8z"/><path id="_527908160" class="fil1" d="m1561.36 1559.13 1135.88 1135.89h-.01v.01l-.01.01-.01.01v.01h-.01l-.01.01-.01.01L1561.3 1559.19h.01l.01-.01.01-.01.01-.01.01-.01v-.01z"/><path id="_527908856" class="fil1" d="M471.296 644.911 1607.18 1780.79l.9.97L472.198 645.876z"/><path id="_527908232" class="fil1" d="M472.198 645.876 1608.08 1781.76l79.2 89.71L551.398 735.589z"/><path id="_527908208" class="fil1" d="M691.842 1466.89 1827.72 2602.77l-90.05 90.81L601.784 1557.7z"/><path id="_527908640" class="fil1" d="M601.784 1557.7 1737.67 2693.58l-1.51 1.48-1.54 1.42-1.57 1.38-1.59 1.34-1.62 1.28-1.65 1.23-1.67 1.19-1.69 1.14-1.72 1.1-1.74 1.04-1.76 1-1.79.94-1.8.91-1.82.85-1.83.8-1.85.76-1.87.71-1.88.66-1.89.62-1.91.56-1.92.52-1.93.47-1.93.42-1.95.38-1.95.33-1.96.28-1.97.23-1.97.18-1.97.13-1.97.09-1.98.04-1.97-.01L543.615 1581.17l1.976.01 1.976-.04 1.974-.09 1.973-.13 1.969-.19 1.964-.23 1.959-.28 1.953-.32 1.945-.38 1.938-.42 1.928-.47 1.918-.52 1.906-.56 1.895-.62 1.88-.66 1.867-.71 1.852-.76 1.836-.8 1.819-.86 1.8-.9 1.782-.95 1.761-.99 1.741-1.05 1.718-1.09 1.695-1.14 1.671-1.19 1.648-1.23 1.621-1.29 1.593-1.33 1.566-1.38 1.538-1.42z"/><path id="_527908304" class="fil1" d="M543.615 1581.17 1679.5 2717.05l-1.91.01-1.91-.04-1.91-.09-1.91-.13-1.9-.18-1.9-.22-1.89-.27-1.89-.32-1.88-.36-1.87-.41-1.87-.46-1.85-.5-1.85-.55-1.83-.59-1.82-.64-1.81-.69-1.79-.73-1.78-.78-1.76-.83-1.74-.87-1.73-.92-1.7-.97-1.69-1.01-1.67-1.05-1.64-1.11-1.62-1.15-1.6-1.19-1.57-1.25L493.324 1563.87l1.574 1.24 1.598 1.2 1.621 1.15 1.644 1.1 1.667 1.06 1.687 1.01 1.706.97 1.726.92 1.744.87 1.761.82 1.777.79 1.793.73 1.807.69 1.82.64 1.832.59 1.845.55 1.854.5 1.865.46 1.873.41 1.88.36 1.889.32 1.893.27 1.898.22 1.903.18 1.906.13 1.909.09 1.909.04z"/><path id="_527908424" class="fil1" d="m1355.15 1467.64 1135.88 1135.88-8.72 6.39-8.85 6.23-8.98 6.05-9.1 5.88-9.22 5.71-9.34 5.53-9.45 5.35-9.58 5.17-9.68 4.99-9.79 4.8-9.9 4.61-10.01 4.42-10.1 4.23-10.21 4.03-10.31 3.84-10.4 3.63-10.49 3.44-10.59 3.23-10.67 3.02-10.76 2.81-10.84 2.6-10.93 2.39-11 2.17-11.09 1.95-11.15 1.73-11.23 1.51-11.3 1.28-11.37 1.06-11.43.82-11.49.59-11.56.36-11.61.12-11.66-.12-11.59-.36-11.54-.6-11.47-.83-11.4-1.06-11.34-1.29-11.27-1.52-11.2-1.74-11.11-1.97-11.05-2.19-10.96-2.4-10.88-2.62-10.79-2.83-10.71-3.04-10.62-3.26-10.53-3.45-10.43-3.66-10.34-3.86-10.23-4.07-10.14-4.25-10.03-4.45-9.93-4.65-9.82-4.83-9.71-5.02-9.6-5.21-9.48-5.38-9.36-5.57-9.24-5.75-9.12-5.92-9-6.09-8.87-6.26-8.74-6.44L691.842 1466.89l8.739 6.43 8.869 6.27 8.996 6.09 9.121 5.92 9.242 5.75 9.364 5.56 9.479 5.39 9.597 5.21 9.708 5.02 9.819 4.83 9.928 4.64 10.032 4.45 10.138 4.26 10.238 4.06 10.335 3.87 10.434 3.66 10.528 3.45 10.618 3.25 10.708 3.05 10.795 2.83 10.88 2.62 10.962 2.4 11.042 2.19 11.119 1.96 11.194 1.75 11.268 1.52 11.339 1.29 11.406 1.06 11.472.83 11.538.6 11.59.35 11.66.12 11.61-.11 11.56-.36 11.49-.59 11.43-.83 11.37-1.05 11.3-1.28 11.23-1.51 11.15-1.73 11.08-1.95 11.01-2.18 10.92-2.38 10.85-2.6 10.76-2.82 10.67-3.02 10.59-3.23 10.49-3.43 10.4-3.63 10.31-3.84 10.21-4.03 10.1-4.23 10.01-4.42 9.9-4.61 9.79-4.81 9.68-4.98 9.57-5.17 9.46-5.35 9.34-5.53 9.22-5.71 9.1-5.88 8.98-6.05 8.85-6.23z"/><path id="_527908544" class="fil1" d="m1561.3 1559.19 1135.88 1135.89-.1.1-.1.11-.1.1-.1.1-.1.11-.1.1-.11.1-.1.11-3 2.84-3.1 2.67-3.21 2.48-3.3 2.29-3.39 2.11-3.47 1.93-3.54 1.74-3.6 1.56-3.67 1.37-3.71 1.19-3.76 1.01-3.8.83-3.82.64-3.85.45-3.85.28-3.87.09-3.86-.1-3.86-.27-3.84-.46-3.82-.65-3.79-.82-3.75-1.02-3.71-1.19-3.65-1.37-3.6-1.56-3.53-1.75-3.46-1.92-3.37-2.11-3.29-2.29-3.19-2.48-3.08-2.65-2.98-2.84-1135.88-1135.89 2.98 2.84 3.08 2.66 3.19 2.48 3.29 2.29 3.37 2.11 3.46 1.92 3.53 1.74 3.59 1.56 3.66 1.38 3.71 1.19 3.75 1.01 3.79.83 3.82.64 3.84.46 3.86.28 3.86.09 3.86-.09 3.86-.27 3.85-.46 3.82-.64 3.8-.82 3.75-1.01 3.72-1.19 3.67-1.37 3.6-1.56 3.54-1.75 3.47-1.92 3.39-2.11 3.3-2.3 3.21-2.48 3.1-2.66 3-2.84.1-.11.11-.1.1-.1.1-.11.1-.1.1-.11.1-.1z"/><path id="_527909024" class="fil1" d="m1561.28 1446.3 1135.88 1135.88.01.02-1135.88-1135.88z"/><path id="_517155568" class="fil1" d="M1560.49 1560.02zm-212.537-1093.2c67.603-8.916 132.156 8.31 177.633 53.785 45.476 45.477 62.7 110.03 53.785 177.633-5.2 39.438-19.36 79.965-42.027 118.191 25.943 64.1 40.228 134.164 40.228 207.565 0 123.54-40.468 237.627-108.87 329.73l92.572 92.573.126.127a76.042 76.042 0 0 1 12.782 17.115c6.68 12.242 9.791 25.934 9.791 39.618 0 .94-.016 1.878-.048 2.816-.811 19.296-8.309 38.444-22.567 53.156a.188.188 0 0 1-.06.059c-.264.28-.534.556-.81.832-31.346 31.346-82.586 31.264-113.72 0l-91.617-92.383c-92.349 69.046-206.977 109.932-331.154 109.932-124.626 0-239.635-41.184-332.157-110.684l-90.057 90.81c-15.917 15.983-37.088 23.816-58.17 23.467-20.368.324-40.84-7.254-56.318-22.732-15.735-15.735-23.282-36.946-22.742-57.826v-.016c-.111-20.74 7.493-41.385 22.723-56.615l91.265-91.265c-67.947-91.926-108.118-205.63-108.118-328.714 0-95.937 24.404-186.173 67.343-264.84l-73.768-119.302a23.888 23.888 0 0 1 8.199 6.017l79.2 89.713a555.091 555.091 0 0 1 42.475-60.095l-76.987-86.956 85.878 76.271a557.031 557.031 0 0 1 59.449-59.814l-81.768-87.068 92.718 77.848a555.157 555.157 0 0 1 62.801-44.607l-96.598-86.677 119.112 73.65c78.827-43.17 169.308-67.715 265.52-67.715 72.303 0 141.37 13.861 204.683 39.072 38.542-23.045 79.463-37.422 119.273-42.671z"/></g></g><path d="M1024-.001c565.541 0 1024 458.46 1024 1024s-458.461 1024-1024 1024c-565.541 0-1024-458.461-1024-1024 0-565.541 458.461-1024 1024-1024z" style="fill:none"/><circle cx="1024" cy="1024" r="553.575" style="fill:#5c6bc0"/><circle cx="1024" cy="1024" r="338.051" style="fill:#7986cb"/><path class="fil5" d="M1103.03 906.308c9.104-9.104 23.864-8.344 32.967.758 9.103 9.103 9.103 23.863 0 32.966L994.789 1081.24c-88.505 88.505-17.604 94.473-125.14 202.697l-272.223 274.501h-.001c-15.16 15.16-35.121 22.742-55.064 22.742-19.944 0-39.905-7.581-55.065-22.74v-.002l-.002-.001c-15.16-15.16-22.742-35.121-22.742-55.066 0-19.944 6.822-39.904 21.983-55.065l275.639-275.639c114.96-114.96 106.61-31.354 204.963-129.705l135.894-136.654z"/><path class="fil5" d="M1525.59 520.611c-45.477-45.476-110.03-62.701-177.633-53.785-65.47 8.633-133.943 41.953-189.898 97.907l-.002.003c-55.955 55.956-89.274 124.428-97.907 189.897-8.916 67.603 8.308 132.155 53.785 177.63v.002c45.478 45.476 110.03 62.701 177.633 53.786 65.47-8.634 133.942-41.952 189.898-97.908 55.956-55.956 89.275-124.428 97.909-189.898 8.915-67.603-8.309-132.156-53.785-177.633z"/><path d="M1516.53 529.668c-36.098-36.098-87.339-49.77-141-42.693-51.967 6.852-106.319 33.3-150.735 77.716l-.001.001c-44.416 44.417-70.864 98.768-77.717 150.735-7.076 53.662 6.595 104.901 42.694 140.998v.002c36.099 36.098 87.34 49.77 141 42.693 51.968-6.853 106.319-33.3 150.736-77.717 44.415-44.415 70.863-98.767 77.716-150.735 7.076-53.662-6.595-104.902-42.693-141z" style="fill:#e6e6e5;fill-rule:nonzero"/><path class="fil7" d="m968.475 1075.65 17.854 18.05c-51.068 65.504-5.33 81.81-103.446 180.554l-281.1 283.45c-31.135 31.265-82.374 31.346-113.722 0-.274-.274-.54-.553-.808-.83l481.222-481.224z"/><path class="fil8" d="m949.231 1056.19 18.859 19.068.385.39-481.222 481.224-.06-.06c-30.334-31.3-30.069-82.678.085-112.831l284.626-284.626c103.393-103.393 110.19-51.24 177.327-103.165z"/><path d="M1489.82 566.783a5.305 5.305 0 0 1-7.501 7.502c-14.105-14.106-31.126-23.917-49.86-29.589-19.613-5.937-41.1-7.367-63.103-4.467-21.433 2.827-43.401 9.788-64.582 20.709-20.413 10.525-40.092 24.746-57.854 42.506a5.306 5.306 0 0 1-7.501 0 5.306 5.306 0 0 1 0-7.5c18.516-18.517 39.1-33.379 60.506-44.415 22.255-11.474 45.408-18.798 68.064-21.785 23.523-3.1 46.52-1.565 67.537 4.798 20.382 6.172 38.915 16.862 54.294 32.241z" style="fill:#cfcfcf;fill-rule:nonzero"/><path class="fil5" d="M463.999 639.858a23.888 23.888 0 0 1 8.2 6.018L642.752 839.07c2.56 2.9 5.782 6.287 9.63 10.136 52.9 54.353 125.6 28.534 173.718-22.084l.26-.273.271-.259c50.619-48.118 76.438-120.819 22.085-173.718-3.85-3.848-7.237-7.07-10.137-9.63L639.367 464.49l230.998 142.832c5.057 4.465 9.176 8.294 12.394 11.51 41.463 41.466 56.623 84.846 53.878 126.848-2.69 41.128 15.717 155.855 41.785 211.74-3.69 4.182-7.084 7.866-10.183 11.068l-.118.123-.123.118c-3.202 3.099-6.886 6.492-11.068 10.183-55.885-26.068-170.612-44.474-211.74-41.785-42.002 2.745-85.382-12.415-126.847-53.878l-11.511-12.394L464 639.857z"/><path class="fil5" d="m516.886 588.538 266.32 300.8c9.4 9.4 24.641 9.4 34.04 0 9.4-9.4 9.4-24.641 0-34.04l-300.36-266.76zM580.445 517.927l278.074 296.098c9.4 9.4 24.641 9.4 34.042 0 9.399-9.4 9.399-24.641 0-34.042L580.445 517.927zM972.871 936.589c-9.4-9.4-13.28 1.963-22.678 11.362-9.4 9.4-20.763 14.064-11.363 23.463l97.62 95.855c91.39 91.39 18.178 97.552 129.22 209.306l281.099 283.45h.001c15.654 15.656 36.266 23.485 56.86 23.485s41.205-7.829 56.859-23.483l.001-.001.001-.002c15.656-15.654 23.484-36.265 23.484-56.86s-7.045-41.205-22.7-56.861l-284.625-284.626c-118.708-118.708-110.086-32.375-211.644-133.934l-92.135-91.154z"/><path class="fil7" d="m1080.08 1077.97-17.852 18.05c51.066 65.504 5.33 81.81 103.445 180.554l281.099 283.45c31.135 31.265 82.376 31.346 113.723 0 .274-.274.54-.553.809-.83L1080.08 1077.97z"/><path class="fil8" d="m1099.32 1058.51-18.858 19.068-.386.39 481.223 481.224.06-.06c30.332-31.3 30.068-82.678-.085-112.831l-284.626-284.626c-103.393-103.393-110.192-51.24-177.328-103.165z"/></g></svg>